<svg width="72" height="72" viewBox="0 0 72 72" fill="none" xmlns="http://www.w3.org/2000/svg">
<g filter="url(#filter0_dd_221_5040)">
<path d="M54.9117 13.5778C54.9117 7.7351 50.2036 3.00012 44.3972 3.00012C38.5909 3.00012 33.8827 7.7351 33.8827 13.5778V41.3808C30.6774 44.2889 28.6255 48.4528 28.6255 53.1323C28.6255 61.899 35.6903 69.0001 44.3972 69.0001C53.1068 69.0001 60.169 61.899 60.169 53.1323C60.169 48.4528 58.117 44.2889 54.9117 41.3808V13.5778Z" fill="url(#paint0_linear_221_5040)"/>
</g>
<g filter="url(#filter1_f_221_5040)">
<path fill-rule="evenodd" clip-rule="evenodd" d="M48.6164 10.4156C48.6161 10.4155 48.6161 10.4155 48.6164 10.4156C48.0657 10.1278 47.8527 9.44809 48.1405 8.89746C48.4283 8.34683 49.108 8.13379 49.6587 8.42162C50.6174 8.92279 51.8403 10.4656 51.8403 13.0761C51.8403 15.3453 51.7685 33.7967 51.7327 42.735C51.7302 43.3563 51.2245 43.858 50.6032 43.8555C49.9818 43.853 49.4802 43.3473 49.4827 42.726C49.5186 33.7833 49.5903 15.3393 49.5903 13.0761C49.5903 12.1219 49.3702 11.4646 49.1382 11.0434C49.0208 10.8302 48.8988 10.6746 48.7966 10.5688C48.7455 10.5159 48.7013 10.4774 48.6674 10.4512C48.6362 10.427 48.6184 10.4168 48.6164 10.4156Z" fill="url(#paint1_linear_221_5040)"/>
</g>
<path fill-rule="evenodd" clip-rule="evenodd" d="M44.4819 9.01987C46.6921 9.01987 48.4839 10.5877 48.4839 12.5218V39.8489C48.4839 41.7829 46.6921 43.3508 44.4819 43.3508C42.2717 43.3508 40.48 41.7829 40.48 39.8489V12.5218C40.48 10.5877 42.2717 9.01987 44.4819 9.01987Z" fill="black" fill-opacity="0.15"/>
<g filter="url(#filter2_d_221_5040)">
<path d="M48.2675 44.7786C48.2675 38.8742 48.2675 34.7888 48.2675 28.8845C48.2675 26.6952 46.4667 24.904 44.2656 24.904C42.0645 24.904 40.2637 26.6952 40.2637 28.8845C40.2637 34.7888 40.2637 38.8742 40.2637 44.7786C37.2622 46.2712 35.2612 49.2566 35.2612 52.839C35.2612 57.8146 39.2632 61.795 44.2656 61.795C49.268 61.795 53.27 57.8146 53.27 52.839C53.27 49.2566 51.269 46.2712 48.2675 44.7786Z" fill="url(#paint2_linear_221_5040)"/>
</g>
<path d="M48.2675 44.7918C48.2675 38.8875 48.2675 34.8021 48.2675 28.8978C48.2675 26.7085 46.4667 24.9173 44.2656 24.9173C42.0645 24.9173 40.2637 26.7085 40.2637 28.8978C40.2637 34.8021 40.2637 38.8875 40.2637 44.7918C37.2622 46.2845 35.2612 49.2699 35.2612 52.8523C35.2612 57.8278 39.2632 61.8083 44.2656 61.8083C49.268 61.8083 53.2699 57.8278 53.2699 52.8523C53.2699 49.2699 51.269 46.2845 48.2675 44.7918Z" fill="url(#paint3_linear_221_5040)"/>
<path d="M43.1612 57.0892C44.7654 58.6934 47.3664 58.6934 48.9706 57.0892C50.5748 55.485 50.5748 52.8841 48.9706 51.2799C47.3664 49.6757 44.7655 49.6757 43.1612 51.2799C41.557 52.8841 41.557 55.485 43.1612 57.0892Z" fill="url(#paint4_linear_221_5040)"/>
<g filter="url(#filter3_f_221_5040)">
<path fill-rule="evenodd" clip-rule="evenodd" d="M42.752 39.3293C42.752 38.708 43.2556 38.2043 43.877 38.2043C51.8524 38.2043 58.3177 44.6696 58.3177 52.6451C58.3177 60.6205 51.8524 67.0859 43.877 67.0859C43.2556 67.0859 42.752 66.5822 42.752 65.9609C42.752 65.3395 43.2556 64.8359 43.877 64.8359C50.6097 64.8359 56.0677 59.3779 56.0677 52.6451C56.0677 45.9123 50.6097 40.4543 43.877 40.4543C43.2556 40.4543 42.752 39.9506 42.752 39.3293Z" fill="url(#paint5_linear_221_5040)"/>
</g>
<path d="M12.9519 22.3992C14.4881 20.0267 15.1034 17.6746 15.4337 15.9732C15.5239 15.5083 16.0868 15.3161 16.4325 15.6396C22.9695 21.7552 25.0953 26.3972 25.5164 31.7695C25.8218 36.9183 23.2911 41.4998 16.4989 41.4998C10.1219 41.4998 5.4159 37.0492 6.05582 29.9951C6.46989 25.4307 8.35687 22.0434 9.70498 20.2084C9.94746 19.8783 10.4395 19.911 10.6563 20.2585L11.9786 22.3777C12.2035 22.7381 12.721 22.7558 12.9519 22.3992Z" fill="url(#paint6_radial_221_5040)"/>
<path d="M12.9519 22.3992C14.4881 20.0267 15.1034 17.6746 15.4337 15.9732C15.5239 15.5083 16.0868 15.3161 16.4325 15.6396C22.9695 21.7552 25.0953 26.3972 25.5164 31.7695C25.8218 36.9183 23.2911 41.4998 16.4989 41.4998C10.1219 41.4998 5.4159 37.0492 6.05582 29.9951C6.46989 25.4307 8.35687 22.0434 9.70498 20.2084C9.94746 19.8783 10.4395 19.911 10.6563 20.2585L11.9786 22.3777C12.2035 22.7381 12.721 22.7558 12.9519 22.3992Z" fill="url(#paint7_radial_221_5040)" fill-opacity="0.7"/>
<path d="M12.9519 22.3992C14.4881 20.0267 15.1034 17.6746 15.4337 15.9732C15.5239 15.5083 16.0868 15.3161 16.4325 15.6396C22.9695 21.7552 25.0953 26.3972 25.5164 31.7695C25.8218 36.9183 23.2911 41.4998 16.4989 41.4998C10.1219 41.4998 5.4159 37.0492 6.05582 29.9951C6.46989 25.4307 8.35687 22.0434 9.70498 20.2084C9.94746 19.8783 10.4395 19.911 10.6563 20.2585L11.9786 22.3777C12.2035 22.7381 12.721 22.7558 12.9519 22.3992Z" fill="url(#paint8_linear_221_5040)"/>
<path d="M12.9519 22.3992C14.4881 20.0267 15.1034 17.6746 15.4337 15.9732C15.5239 15.5083 16.0868 15.3161 16.4325 15.6396C22.9695 21.7552 25.0953 26.3972 25.5164 31.7695C25.8218 36.9183 23.2911 41.4998 16.4989 41.4998C10.1219 41.4998 5.4159 37.0492 6.05582 29.9951C6.46989 25.4307 8.35687 22.0434 9.70498 20.2084C9.94746 19.8783 10.4395 19.911 10.6563 20.2585L11.9786 22.3777C12.2035 22.7381 12.721 22.7558 12.9519 22.3992Z" fill="url(#paint9_radial_221_5040)"/>
<path d="M12.9519 22.3992C14.4881 20.0267 15.1034 17.6746 15.4337 15.9732C15.5239 15.5083 16.0868 15.3161 16.4325 15.6396C22.9695 21.7552 25.0953 26.3972 25.5164 31.7695C25.8218 36.9183 23.2911 41.4998 16.4989 41.4998C10.1219 41.4998 5.4159 37.0492 6.05582 29.9951C6.46989 25.4307 8.35687 22.0434 9.70498 20.2084C9.94746 19.8783 10.4395 19.911 10.6563 20.2585L11.9786 22.3777C12.2035 22.7381 12.721 22.7558 12.9519 22.3992Z" fill="url(#paint10_radial_221_5040)"/>
<path d="M12.9519 22.3992C14.4881 20.0267 15.1034 17.6746 15.4337 15.9732C15.5239 15.5083 16.0868 15.3161 16.4325 15.6396C22.9695 21.7552 25.0953 26.3972 25.5164 31.7695C25.8218 36.9183 23.2911 41.4998 16.4989 41.4998C10.1219 41.4998 5.4159 37.0492 6.05582 29.9951C6.46989 25.4307 8.35687 22.0434 9.70498 20.2084C9.94746 19.8783 10.4395 19.911 10.6563 20.2585L11.9786 22.3777C12.2035 22.7381 12.721 22.7558 12.9519 22.3992Z" fill="url(#paint11_radial_221_5040)"/>
<g filter="url(#filter4_i_221_5040)">
<path d="M10.8437 32.8386C12.0625 29.938 14.6829 26.6994 16.2024 25.2474C16.4141 25.045 16.7424 25.0441 16.9632 25.2366C20.2737 28.1223 21.2142 30.6865 22.0067 33.6947C22.7942 36.684 22.0068 41.5005 16.0811 41.5005C10.978 41.5005 9.21021 36.7258 10.8437 32.8386Z" fill="url(#paint12_radial_221_5040)"/>
<path d="M10.8437 32.8386C12.0625 29.938 14.6829 26.6994 16.2024 25.2474C16.4141 25.045 16.7424 25.0441 16.9632 25.2366C20.2737 28.1223 21.2142 30.6865 22.0067 33.6947C22.7942 36.684 22.0068 41.5005 16.0811 41.5005C10.978 41.5005 9.21021 36.7258 10.8437 32.8386Z" fill="url(#paint13_radial_221_5040)"/>
<path d="M10.8437 32.8386C12.0625 29.938 14.6829 26.6994 16.2024 25.2474C16.4141 25.045 16.7424 25.0441 16.9632 25.2366C20.2737 28.1223 21.2142 30.6865 22.0067 33.6947C22.7942 36.684 22.0068 41.5005 16.0811 41.5005C10.978 41.5005 9.21021 36.7258 10.8437 32.8386Z" fill="url(#paint14_radial_221_5040)"/>
</g>
<path d="M10.8437 32.8386C12.0625 29.938 14.6829 26.6994 16.2024 25.2474C16.4141 25.045 16.7424 25.0441 16.9632 25.2366C20.2737 28.1223 21.2142 30.6865 22.0067 33.6947C22.7942 36.684 22.0068 41.5005 16.0811 41.5005C10.978 41.5005 9.21021 36.7258 10.8437 32.8386Z" fill="url(#paint15_linear_221_5040)"/>
<path d="M10.8437 32.8386C12.0625 29.938 14.6829 26.6994 16.2024 25.2474C16.4141 25.045 16.7424 25.0441 16.9632 25.2366C20.2737 28.1223 21.2142 30.6865 22.0067 33.6947C22.7942 36.684 22.0068 41.5005 16.0811 41.5005C10.978 41.5005 9.21021 36.7258 10.8437 32.8386Z" fill="url(#paint16_radial_221_5040)"/>
<g opacity="0.6" filter="url(#filter5_f_221_5040)">
<path d="M11.8952 24.3675C14.0504 21.2119 15.3109 17.7985 15.6957 16.9561C15.1345 21.2704 13.4988 24.4291 10.4198 28.4968C7.95664 31.751 7.51191 34.5369 7.53329 35.2148C6.76355 30.0377 9.20106 28.312 11.8952 24.3675Z" fill="url(#paint17_linear_221_5040)"/>
</g>
<g filter="url(#filter6_f_221_5040)">
<path d="M10.0321 20.9566C8.82191 22.4587 6.4165 26.6251 6.47606 31.2741C7.66889 26.5059 10.4561 25.0033 10.0321 20.9566Z" fill="url(#paint18_linear_221_5040)"/>
</g>
<defs>
<filter id="filter0_dd_221_5040" x="27.1255" y="1.50012" width="36.0435" height="69.9" filterUnits="userSpaceOnUse" color-interpolation-filters="sRGB">
<feFlood flood-opacity="0" result="BackgroundImageFix"/>
<feColorMatrix in="SourceAlpha" type="matrix" values="0 0 0 0 0 0 0 0 0 0 0 0 0 0 0 0 0 0 127 0" result="hardAlpha"/>
<feOffset/>
<feGaussianBlur stdDeviation="0.75"/>
<feColorMatrix type="matrix" values="0 0 0 0 0 0 0 0 0 0 0 0 0 0 0 0 0 0 0.2 0"/>
<feBlend mode="normal" in2="BackgroundImageFix" result="effect1_dropShadow_221_5040"/>
<feColorMatrix in="SourceAlpha" type="matrix" values="0 0 0 0 0 0 0 0 0 0 0 0 0 0 0 0 0 0 127 0" result="hardAlpha"/>
<feOffset dx="1.5" dy="0.9"/>
<feGaussianBlur stdDeviation="0.75"/>
<feColorMatrix type="matrix" values="0 0 0 0 0 0 0 0 0 0 0 0 0 0 0 0 0 0 0.15 0"/>
<feBlend mode="normal" in2="effect1_dropShadow_221_5040" result="effect2_dropShadow_221_5040"/>
<feBlend mode="normal" in="SourceGraphic" in2="effect2_dropShadow_221_5040" result="shape"/>
</filter>
<filter id="filter1_f_221_5040" x="45.7622" y="6.0434" width="8.32812" height="40.0621" filterUnits="userSpaceOnUse" color-interpolation-filters="sRGB">
<feFlood flood-opacity="0" result="BackgroundImageFix"/>
<feBlend mode="normal" in="SourceGraphic" in2="BackgroundImageFix" result="shape"/>
<feGaussianBlur stdDeviation="1.125" result="effect1_foregroundBlur_221_5040"/>
</filter>
<filter id="filter2_d_221_5040" x="34.6612" y="24.904" width="19.2088" height="38.091" filterUnits="userSpaceOnUse" color-interpolation-filters="sRGB">
<feFlood flood-opacity="0" result="BackgroundImageFix"/>
<feColorMatrix in="SourceAlpha" type="matrix" values="0 0 0 0 0 0 0 0 0 0 0 0 0 0 0 0 0 0 127 0" result="hardAlpha"/>
<feOffset dy="0.6"/>
<feGaussianBlur stdDeviation="0.3"/>
<feComposite in2="hardAlpha" operator="out"/>
<feColorMatrix type="matrix" values="0 0 0 0 0.7 0 0 0 0 0.215833 0 0 0 0 0.215833 0 0 0 1 0"/>
<feBlend mode="normal" in2="BackgroundImageFix" result="effect1_dropShadow_221_5040"/>
<feBlend mode="normal" in="SourceGraphic" in2="effect1_dropShadow_221_5040" result="shape"/>
</filter>
<filter id="filter3_f_221_5040" x="40.502" y="35.9543" width="20.0659" height="33.3816" filterUnits="userSpaceOnUse" color-interpolation-filters="sRGB">
<feFlood flood-opacity="0" result="BackgroundImageFix"/>
<feBlend mode="normal" in="SourceGraphic" in2="BackgroundImageFix" result="shape"/>
<feGaussianBlur stdDeviation="1.125" result="effect1_foregroundBlur_221_5040"/>
</filter>
<filter id="filter4_i_221_5040" x="10.2544" y="25.0939" width="13.5073" height="16.4066" filterUnits="userSpaceOnUse" color-interpolation-filters="sRGB">
<feFlood flood-opacity="0" result="BackgroundImageFix"/>
<feBlend mode="normal" in="SourceGraphic" in2="BackgroundImageFix" result="shape"/>
<feColorMatrix in="SourceAlpha" type="matrix" values="0 0 0 0 0 0 0 0 0 0 0 0 0 0 0 0 0 0 127 0" result="hardAlpha"/>
<feOffset dx="1.5"/>
<feGaussianBlur stdDeviation="0.75"/>
<feComposite in2="hardAlpha" operator="arithmetic" k2="-1" k3="1"/>
<feColorMatrix type="matrix" values="0 0 0 0 0.952941 0 0 0 0 0.615686 0 0 0 0 0.364706 0 0 0 0.6 0"/>
<feBlend mode="normal" in2="shape" result="effect1_innerShadow_221_5040"/>
</filter>
<filter id="filter5_f_221_5040" x="3.63916" y="13.2061" width="15.8066" height="25.7587" filterUnits="userSpaceOnUse" color-interpolation-filters="sRGB">
<feFlood flood-opacity="0" result="BackgroundImageFix"/>
<feBlend mode="normal" in="SourceGraphic" in2="BackgroundImageFix" result="shape"/>
<feGaussianBlur stdDeviation="1.875" result="effect1_foregroundBlur_221_5040"/>
</filter>
<filter id="filter6_f_221_5040" x="1.9751" y="16.4566" width="12.6006" height="19.3174" filterUnits="userSpaceOnUse" color-interpolation-filters="sRGB">
<feFlood flood-opacity="0" result="BackgroundImageFix"/>
<feBlend mode="normal" in="SourceGraphic" in2="BackgroundImageFix" result="shape"/>
<feGaussianBlur stdDeviation="2.25" result="effect1_foregroundBlur_221_5040"/>
</filter>
<linearGradient id="paint0_linear_221_5040" x1="33.8876" y1="40.9935" x2="53.8613" y2="40.9935" gradientUnits="userSpaceOnUse">
<stop stop-color="#BADBFF"/>
<stop offset="1" stop-color="#D5EEFF"/>
</linearGradient>
<linearGradient id="paint1_linear_221_5040" x1="49.1734" y1="5.43842" x2="33.1729" y2="34.6119" gradientUnits="userSpaceOnUse">
<stop stop-color="#C8F6FF" stop-opacity="0"/>
<stop offset="0.321794" stop-color="#C8F6FF"/>
</linearGradient>
<linearGradient id="paint2_linear_221_5040" x1="30.759" y1="59.5141" x2="48.5973" y2="56.2579" gradientUnits="userSpaceOnUse">
<stop offset="0.0520833" stop-color="#ED7474"/>
<stop offset="0.385417" stop-color="#FF8787"/>
<stop offset="0.921875" stop-color="#FFACAC"/>
</linearGradient>
<linearGradient id="paint3_linear_221_5040" x1="30.8861" y1="48.1545" x2="47.1205" y2="55.0287" gradientUnits="userSpaceOnUse">
<stop offset="0.395833" stop-color="#FF285E" stop-opacity="0.71"/>
<stop offset="1" stop-color="#BC2238"/>
</linearGradient>
<linearGradient id="paint4_linear_221_5040" x1="47.9365" y1="50.2458" x2="42.1271" y2="56.0551" gradientUnits="userSpaceOnUse">
<stop stop-color="white"/>
<stop offset="0.733331" stop-color="white" stop-opacity="0.1"/>
</linearGradient>
<linearGradient id="paint5_linear_221_5040" x1="47.7359" y1="50.8096" x2="58.0815" y2="50.8072" gradientUnits="userSpaceOnUse">
<stop stop-color="#C8F6FF" stop-opacity="0"/>
<stop offset="0.989832" stop-color="#C8F6FF"/>
</linearGradient>
<radialGradient id="paint6_radial_221_5040" cx="0" cy="0" r="1" gradientUnits="userSpaceOnUse" gradientTransform="translate(23.2386 31.9829) rotate(-179.474) scale(15.9163 24.0028)">
<stop stop-color="#FF953D"/>
<stop offset="1" stop-color="#FF486D"/>
</radialGradient>
<radialGradient id="paint7_radial_221_5040" cx="0" cy="0" r="1" gradientUnits="userSpaceOnUse" gradientTransform="translate(10.5513 28.1989) rotate(-157.937) scale(9.62877 16.6151)">
<stop stop-color="#CE2727"/>
<stop offset="1" stop-color="#CE5327" stop-opacity="0"/>
</radialGradient>
<linearGradient id="paint8_linear_221_5040" x1="17.9645" y1="41.4998" x2="17.9645" y2="36.7539" gradientUnits="userSpaceOnUse">
<stop stop-color="#FF3F52"/>
<stop offset="1" stop-color="#FF7583" stop-opacity="0"/>
</linearGradient>
<radialGradient id="paint9_radial_221_5040" cx="0" cy="0" r="1" gradientUnits="userSpaceOnUse" gradientTransform="translate(5.51057 27.0227) rotate(24.0149) scale(2.88995 23.9219)">
<stop stop-color="#F76414"/>
<stop offset="1" stop-color="#FFAA7B" stop-opacity="0"/>
</radialGradient>
<radialGradient id="paint10_radial_221_5040" cx="0" cy="0" r="1" gradientUnits="userSpaceOnUse" gradientTransform="translate(13.835 18.0938) rotate(25.3285) scale(2.13996 4.29447)">
<stop stop-color="#FF846C"/>
<stop offset="1" stop-color="#FF846C" stop-opacity="0"/>
</radialGradient>
<radialGradient id="paint11_radial_221_5040" cx="0" cy="0" r="1" gradientUnits="userSpaceOnUse" gradientTransform="translate(12.4924 21.2685) rotate(113.224) scale(2.12081 0.486009)">
<stop stop-color="#FFA682"/>
<stop offset="1" stop-color="#FFA682" stop-opacity="0"/>
</radialGradient>
<radialGradient id="paint12_radial_221_5040" cx="0" cy="0" r="1" gradientUnits="userSpaceOnUse" gradientTransform="translate(20.2836 36.6905) rotate(-168.558) scale(8.58607 10.6921)">
<stop stop-color="#FDDF53"/>
<stop offset="1" stop-color="#FF8E41"/>
</radialGradient>
<radialGradient id="paint13_radial_221_5040" cx="0" cy="0" r="1" gradientUnits="userSpaceOnUse" gradientTransform="translate(12.747 23.178) rotate(69.0442) scale(12.1076 10.5199)">
<stop stop-color="#FF7C65"/>
<stop offset="1" stop-color="#FF6B4E" stop-opacity="0"/>
</radialGradient>
<radialGradient id="paint14_radial_221_5040" cx="0" cy="0" r="1" gradientUnits="userSpaceOnUse" gradientTransform="translate(18.6008 33.4824) rotate(174.239) scale(8.38878 20.5394)">
<stop offset="0.627719" stop-color="#D7812D" stop-opacity="0"/>
<stop offset="1" stop-color="#D7812D"/>
</radialGradient>
<linearGradient id="paint15_linear_221_5040" x1="16.2581" y1="24.9069" x2="16.2581" y2="28.0294" gradientUnits="userSpaceOnUse">
<stop stop-color="#F95131"/>
<stop offset="1" stop-color="#F95131" stop-opacity="0"/>
</linearGradient>
<radialGradient id="paint16_radial_221_5040" cx="0" cy="0" r="1" gradientUnits="userSpaceOnUse" gradientTransform="translate(21.8084 31.9187) rotate(143.063) scale(13.7446 9.94583)">
<stop offset="0.772305" stop-color="#F18A52" stop-opacity="0"/>
<stop offset="1" stop-color="#F18A52"/>
</radialGradient>
<linearGradient id="paint17_linear_221_5040" x1="14.8572" y1="17.5879" x2="8.02455" y2="34.7868" gradientUnits="userSpaceOnUse">
<stop stop-color="#FF7558"/>
<stop offset="1" stop-color="#F38758"/>
</linearGradient>
<linearGradient id="paint18_linear_221_5040" x1="9.77822" y1="21.2075" x2="6.09311" y2="31.7591" gradientUnits="userSpaceOnUse">
<stop stop-color="#FF815B"/>
<stop offset="1" stop-color="#FF9C6D"/>
</linearGradient>
</defs>
</svg>
